<svg width="125" height="32" viewBox="0 0 125 32" fill="none" xmlns="http://www.w3.org/2000/svg">
<path d="M25.5461 23.3842C25.5073 23.4966 24.8865 25.6713 23.373 27.9179C22.0663 29.861 20.7091 31.7971 18.57 31.8365C16.4696 31.8769 15.7935 30.5697 13.3933 30.5697C10.9904 30.5697 10.2395 31.7971 8.25362 31.8769C6.19016 31.9558 4.61659 29.7762 3.30012 27.8411C0.604155 23.8821 -1.4525 16.6551 1.3133 11.7803C2.68312 9.35625 5.13853 7.82232 7.80251 7.7829C9.83106 7.74449 11.7412 9.16698 12.9811 9.16698C14.219 9.16698 16.5424 7.45463 18.9852 7.70603C20.0077 7.7504 22.8793 8.124 24.7235 10.8675C24.577 10.9622 21.297 12.9012 21.3329 16.9331C21.3756 21.7596 25.4977 23.3645 25.5461 23.3842ZM17.3845 5.08971C18.4826 3.74016 19.219 1.86614 19.0172 0C17.4388 0.0591545 15.5267 1.06761 14.3965 2.41524C13.3808 3.60802 12.4902 5.51656 12.7317 7.34424C14.4906 7.48324 16.2911 6.43532 17.3845 5.08971Z" fill="black"/>
<path d="M39.7203 14.2558H36.3186L35.5022 16.7068H34.0616L37.2834 7.63814H38.7803L42.0021 16.7068H40.5367L39.7203 14.2558ZM36.6712 13.1246H39.3677L38.0381 9.14642H38.0008L36.6712 13.1246Z" fill="black"/>
<path d="M48.3962 16.707H47.1157V15.5696H47.0851C46.714 16.3612 46.0645 16.7824 45.0687 16.7824C43.6523 16.7824 42.787 15.8523 42.787 14.3378V10.0957H44.1228V14.0736C44.1228 15.0792 44.5924 15.6135 45.514 15.6135C46.4788 15.6135 47.0604 14.9347 47.0604 13.9041V10.0957H48.3962V16.707Z" fill="black"/>
<path d="M51.6354 8.53101V10.0957H52.8724V11.1705H51.6354V14.8155C51.6354 15.3809 51.8828 15.6451 52.4271 15.6451C52.5634 15.6451 52.7797 15.6261 52.8665 15.6135V16.6819C52.7181 16.7196 52.4213 16.7447 52.1244 16.7447C50.807 16.7447 50.2938 16.242 50.2938 14.9599V11.1705H49.3474V10.0957H50.2938V8.53101H51.6354Z" fill="black"/>
<path d="M54.2067 7.63814H55.5304V11.2206H55.5615C55.951 10.4285 56.6247 10.0201 57.6205 10.0201C59.0491 10.0201 59.9028 10.9879 59.9028 12.4836V16.7068H58.5606V12.754C58.5606 11.7797 58.0784 11.189 57.1384 11.189C56.1489 11.189 55.5425 11.8803 55.5425 12.9299V16.7068H54.2067V7.63814Z" fill="black"/>
<path d="M61.0893 13.4013C61.0893 11.3213 62.2952 10.0141 64.1753 10.0141C66.0617 10.0141 67.2613 11.3213 67.2613 13.4013C67.2613 15.4878 66.068 16.7886 64.1753 16.7886C62.2831 16.7886 61.0893 15.4878 61.0893 13.4013ZM65.9012 13.4013C65.9012 11.9749 65.258 11.1325 64.1753 11.1325C63.0931 11.1325 62.4499 11.981 62.4499 13.4013C62.4499 14.8342 63.0931 15.6702 64.1753 15.6702C65.258 15.6702 65.9012 14.8342 65.9012 13.4013Z" fill="black"/>
<path d="M68.4846 10.0958H69.7588V11.2209H69.7894C69.9936 10.4729 70.5873 10.0266 71.3542 10.0266C71.5463 10.0266 71.7068 10.0517 71.8121 10.0768V11.3466C71.7068 11.3024 71.4716 11.2647 71.2121 11.2647C70.3525 11.2647 69.8204 11.8555 69.8204 12.7856V16.7071H68.4846V10.0958Z" fill="black"/>
<path d="M72.7696 8.35496C72.7696 7.92121 73.116 7.57569 73.5428 7.57569C73.9755 7.57569 74.3218 7.92121 74.3218 8.35496C74.3218 8.78231 73.9755 9.12783 73.5428 9.12783C73.116 9.12783 72.7696 8.78231 72.7696 8.35496ZM72.8744 10.0956H74.2103V16.7069H72.8744V10.0956Z" fill="black"/>
<path d="M78.198 10.0203C79.6391 10.0203 80.6718 10.8309 80.7029 12.0001H79.447C79.3917 11.4155 78.9028 11.0572 78.1606 11.0572C77.4374 11.0572 76.9548 11.3968 76.9548 11.9118C76.9548 12.3079 77.2764 12.5718 77.9506 12.7414L79.0454 12.9992C80.3565 13.3196 80.8513 13.81 80.8513 14.7776C80.8513 15.9719 79.7381 16.7886 78.1485 16.7886C76.6147 16.7886 75.582 15.9906 75.4831 14.784H76.8063C76.8995 15.4188 77.4001 15.758 78.2101 15.758C79.008 15.758 79.5091 15.425 79.5091 14.8971C79.5091 14.4887 79.2617 14.2687 78.5817 14.0927L77.4185 13.8036C76.2437 13.5145 75.6499 12.905 75.6499 11.9873C75.6499 10.8186 76.6826 10.0203 78.198 10.0203Z" fill="black"/>
<path d="M87.4691 14.7652C87.2896 15.9654 86.1391 16.7886 84.6674 16.7886C82.7747 16.7886 81.5999 15.5004 81.5999 13.4329C81.5999 11.3588 82.781 10.0141 84.6116 10.0141C86.4117 10.0141 87.5433 11.271 87.5433 13.2756V13.7407H82.9483V13.8223C82.9483 14.9535 83.6468 15.6953 84.6984 15.6953C85.4406 15.6953 86.0217 15.337 86.2012 14.7652H87.4691ZM82.9541 12.7916H86.2075C86.1764 11.7799 85.5395 11.1138 84.6116 11.1138C83.6905 11.1138 83.0221 11.7925 82.9541 12.7916Z" fill="black"/>
<path d="M88.476 13.4011C88.476 11.3586 89.5829 10.0263 91.1972 10.0263C92.1309 10.0263 92.8668 10.4664 93.2383 11.1954H93.2626V7.63814H94.6048V16.7068H93.3062V15.5817H93.2815C92.8978 16.3359 92.1557 16.776 91.2098 16.776C89.5829 16.776 88.476 15.4437 88.476 13.4011ZM89.8429 13.4011C89.8429 14.7586 90.5229 15.6259 91.5619 15.6259C92.5888 15.6259 93.2752 14.746 93.2752 13.4011C93.2752 12.0688 92.5888 11.1826 91.5619 11.1826C90.5229 11.1826 89.8429 12.0563 89.8429 13.4011Z" fill="black"/>
<path d="M35.6943 29.3226C35.7933 30.2216 36.6528 30.8121 37.8276 30.8121C38.9535 30.8121 39.7635 30.2216 39.7635 29.4108C39.7635 28.7069 39.2751 28.286 38.1187 27.9967L36.9618 27.7137C35.3228 27.3115 34.5622 26.5327 34.5622 25.2694C34.5622 23.7045 35.9043 22.6299 37.8092 22.6299C39.6956 22.6299 40.9883 23.7045 41.0315 25.2694H39.683C39.603 24.3645 38.8666 23.8178 37.7908 23.8178C36.7144 23.8178 35.9786 24.3709 35.9786 25.1753C35.9786 25.8161 36.4486 26.1931 37.5987 26.4825L38.5824 26.7274C40.413 27.1671 41.1736 27.9148 41.1736 29.2412C41.1736 30.9378 39.844 32 37.7287 32C35.7496 32 34.4137 30.9629 34.3274 29.3226H35.6943Z" fill="black"/>
<path d="M47.9615 29.9072C47.782 31.1079 46.6315 31.9311 45.1598 31.9311C43.2671 31.9311 42.0922 30.6426 42.0922 28.5749C42.0922 26.5013 43.2734 25.1562 45.104 25.1562C46.9041 25.1562 48.0357 26.4131 48.0357 28.4177V28.883H43.4407V28.9648C43.4407 30.096 44.1392 30.8373 45.1908 30.8373C45.933 30.8373 46.5141 30.479 46.6936 29.9072H47.9615ZM43.4465 27.9341H46.6999C46.6688 26.9222 46.0319 26.2558 45.104 26.2558C44.1829 26.2558 43.5145 26.935 43.4465 27.9341Z" fill="black"/>
<path d="M49.2592 25.2378H50.5334V26.3626H50.5645C50.7682 25.6149 51.3619 25.1688 52.1288 25.1688C52.3204 25.1688 52.4815 25.194 52.5867 25.2191V26.4883C52.4815 26.4444 52.2467 26.4065 51.9867 26.4065C51.1272 26.4065 50.595 26.9975 50.595 27.9276V31.8491H49.2592V25.2378Z" fill="black"/>
<path d="M56.9163 31.8492H55.4815L53.1377 25.2379H54.5599L56.1926 30.5233H56.2174L57.8501 25.2379H59.248L56.9163 31.8492Z" fill="black"/>
<path d="M60.1435 23.4968C60.1435 23.0635 60.4898 22.7175 60.9167 22.7175C61.3494 22.7175 61.6957 23.0635 61.6957 23.4968C61.6957 23.9241 61.3494 24.2702 60.9167 24.2702C60.4898 24.2702 60.1435 23.9241 60.1435 23.4968ZM60.2483 25.2377H61.5841V31.849H60.2483V25.2377Z" fill="black"/>
<path d="M67.3888 27.5127C67.2714 26.8153 66.7335 26.2938 65.855 26.2938C64.8281 26.2938 64.1481 27.1672 64.1481 28.5439C64.1481 29.9516 64.8344 30.7999 65.8671 30.7999C66.6961 30.7999 67.2403 30.3784 67.3888 29.612H68.6752C68.5267 31.001 67.4319 31.9311 65.855 31.9311C63.9996 31.9311 62.7875 30.6426 62.7875 28.5439C62.7875 26.4885 63.9996 25.1562 65.8429 25.1562C67.5125 25.1562 68.5515 26.2248 68.663 27.5127H67.3888Z" fill="black"/>
<path d="M75.3905 29.9072C75.211 31.1079 74.0609 31.9311 72.5887 31.9311C70.6965 31.9311 69.5212 30.6426 69.5212 28.5749C69.5212 26.5013 70.7023 25.1562 72.5329 25.1562C74.3325 25.1562 75.4647 26.4131 75.4647 28.4177V28.883H70.8692V28.9648C70.8692 30.096 71.5682 30.8373 72.6198 30.8373C73.3619 30.8373 73.943 30.479 74.1225 29.9072H75.3905ZM70.8755 27.9341H74.1288C74.0978 26.9222 73.4609 26.2558 72.5329 26.2558C71.6113 26.2558 70.9439 26.935 70.8755 27.9341Z" fill="black"/>
<path d="M82.9512 22.7806C84.6829 22.7806 85.8893 23.9932 85.8893 25.7592C85.8893 27.5317 84.6587 28.7506 82.9081 28.7506H80.9911V31.849H79.6057V22.7806H82.9512ZM80.9911 27.5692H82.5806C83.7865 27.5692 84.4729 26.9092 84.4729 25.7656C84.4729 24.6221 83.7865 23.9685 82.5865 23.9685H80.9911V27.5692Z" fill="black"/>
<path d="M87.0296 25.2378H88.3039V26.3626H88.3344C88.5387 25.6149 89.1324 25.1688 89.8993 25.1688C90.0914 25.1688 90.2519 25.194 90.3572 25.2191V26.4883C90.2519 26.4444 90.0167 26.4065 89.7571 26.4065C88.8976 26.4065 88.3655 26.9975 88.3655 27.9276V31.8491H87.0296V25.2378Z" fill="black"/>
<path d="M90.8073 28.5439C90.8073 26.4633 92.0132 25.1562 93.8933 25.1562C95.7797 25.1562 96.9793 26.4633 96.9793 28.5439C96.9793 30.6298 95.786 31.9311 93.8933 31.9311C92.0011 31.9311 90.8073 30.6298 90.8073 28.5439ZM95.6192 28.5439C95.6192 27.1169 94.976 26.275 93.8933 26.275C92.8111 26.275 92.1679 27.1233 92.1679 28.5439C92.1679 29.9762 92.8111 30.8122 93.8933 30.8122C94.976 30.8122 95.6192 29.9762 95.6192 28.5439Z" fill="black"/>
<path d="M101.252 31.8492H99.8169L97.473 25.2379H98.8952L100.528 30.5233H100.553L102.185 25.2379H103.583L101.252 31.8492Z" fill="black"/>
<path d="M104.479 23.4968C104.479 23.0635 104.826 22.7175 105.252 22.7175C105.685 22.7175 106.031 23.0635 106.031 23.4968C106.031 23.9241 105.685 24.2702 105.252 24.2702C104.826 24.2702 104.479 23.9241 104.479 23.4968ZM104.584 25.2377H105.92V31.849H104.584V25.2377Z" fill="black"/>
<path d="M107.186 28.5436C107.186 26.501 108.293 25.1687 109.908 25.1687C110.841 25.1687 111.578 25.6084 111.948 26.3374H111.973V22.7806H113.315V31.849H112.017V30.7242H111.992C111.608 31.4784 110.866 31.918 109.92 31.918C108.293 31.918 107.186 30.5857 107.186 28.5436ZM108.553 28.5436C108.553 29.9011 109.233 30.7681 110.272 30.7681C111.299 30.7681 111.986 29.8883 111.986 28.5436C111.986 27.2108 111.299 26.3251 110.272 26.3251C109.233 26.3251 108.553 27.1985 108.553 28.5436Z" fill="black"/>
<path d="M120.451 29.9072C120.272 31.1079 119.121 31.9311 117.649 31.9311C115.757 31.9311 114.582 30.6426 114.582 28.5749C114.582 26.5013 115.763 25.1562 117.593 25.1562C119.393 25.1562 120.525 26.4131 120.525 28.4177V28.883H115.93V28.9648C115.93 30.096 116.629 30.8373 117.68 30.8373C118.422 30.8373 119.004 30.479 119.183 29.9072H120.451ZM115.936 27.9341H119.189C119.158 26.9222 118.521 26.2558 117.593 26.2558C116.672 26.2558 116.004 26.935 115.936 27.9341Z" fill="black"/>
<path d="M121.672 25.2378H122.947V26.3626H122.978C123.181 25.6149 123.775 25.1688 124.542 25.1688C124.734 25.1688 124.895 25.194 125 25.2191V26.4883C124.895 26.4444 124.66 26.4065 124.4 26.4065C123.54 26.4065 123.008 26.9975 123.008 27.9276V31.8491H121.672V25.2378Z" fill="black"/>
</svg>
