<svg width="100" height="47" viewBox="0 0 100 47" fill="none" xmlns="http://www.w3.org/2000/svg">
<path fill-rule="evenodd" clip-rule="evenodd" d="M86.852 0.720284C88.4039 0.722805 89.4046 0.726407 90.1604 0.73325C90.9062 0.739732 91.4171 0.749096 91.8281 0.762421C92.6116 0.787631 93.1722 0.833369 93.6588 0.902516C94.4756 1.01884 95.1373 1.21476 95.743 1.50863C96.3461 1.80071 96.8926 2.19218 97.3611 2.66506C97.8294 3.13792 98.2157 3.68894 98.5042 4.29649C98.794 4.9073 98.9883 5.57428 99.1035 6.39973C99.1721 6.89096 99.2181 7.45855 99.2439 8.25086C99.2571 8.66646 99.2668 9.18255 99.2731 9.93632C99.2799 10.6998 99.2838 11.7104 99.2863 13.2763V33.7248C99.2838 35.2907 99.2799 36.3012 99.2731 37.0647C99.2664 37.8182 99.2571 38.3346 99.2439 38.7502C99.2181 39.5429 99.1725 40.1101 99.1035 40.6013C98.9883 41.4264 98.794 42.0937 98.5042 42.7046C98.2157 43.3122 97.8291 43.8635 97.3611 44.336C96.8926 44.8089 96.3461 45.2 95.743 45.4925C95.1373 45.786 94.4756 45.9822 93.6588 46.0985C93.1725 46.1677 92.612 46.2134 91.8281 46.2386C91.4171 46.252 90.9062 46.2613 90.1604 46.2678C89.4046 46.2744 88.4039 46.2783 86.852 46.2808H13.1484C11.5965 46.2783 10.5958 46.2746 9.83998 46.2678C9.0942 46.2613 8.58331 46.252 8.17239 46.2386C7.38874 46.2134 6.82823 46.1677 6.34162 46.0985C5.52477 45.9822 4.86323 45.7864 4.25738 45.4925C3.65439 45.2004 3.1078 44.8089 2.63939 44.336C2.17099 43.8631 1.78471 43.3122 1.49624 42.7046C1.20634 42.0937 1.01213 41.4268 0.896815 40.6013C0.828264 40.1101 0.782215 39.5425 0.75687 38.7502C0.743663 38.3346 0.734015 37.8185 0.727588 37.0647C0.720808 36.3012 0.716884 35.2907 0.71438 33.7248V13.2759C0.716884 11.71 0.720808 10.6995 0.727588 9.93597C0.73438 9.18255 0.743663 8.66611 0.75687 8.2505C0.782567 7.45783 0.828264 6.8906 0.896815 6.39936C1.01213 5.57428 1.20634 4.90694 1.49624 4.29614C1.78471 3.68857 2.17135 3.1372 2.63939 2.66469C3.10744 2.19218 3.65439 1.80071 4.25738 1.50827C4.86323 1.21476 5.52477 1.01848 6.34162 0.902156C6.82788 0.833008 7.38839 0.787271 8.17239 0.762061C8.58331 0.748736 9.0942 0.739371 9.83998 0.732889C10.5958 0.726407 11.5965 0.722445 13.1484 0.719924L86.852 0.720284ZM86.853 0H13.1484C11.5929 0.002521 10.5908 0.00648255 9.83357 0.0129651C9.09634 0.0194477 8.57688 0.0284512 8.14918 0.0424967C7.3666 0.0677068 6.77824 0.113085 6.24201 0.189074C5.36162 0.314404 4.6326 0.527249 3.94785 0.858939C3.27202 1.18667 2.66153 1.62281 2.13422 2.15545C1.60727 2.68738 1.176 3.30286 0.852188 3.98497C0.524449 4.67536 0.313814 5.41042 0.189574 6.29852C0.11353 6.84342 0.0681891 7.43801 0.0428415 8.22709C0.0289174 8.66502 0.0196359 9.18975 0.0132084 9.92948C0.00678214 10.6811 0.002498 11.6816 0 13.2745V33.7241C0.002498 35.318 0.00678214 36.3186 0.0132084 37.0705C0.0196359 37.8099 0.0289174 38.335 0.0428415 38.7725C0.0681891 39.5616 0.11353 40.1563 0.189574 40.7011C0.313814 41.5893 0.524097 42.3247 0.852188 43.015C1.176 43.6971 1.60727 44.3126 2.13422 44.8445C2.66153 45.3772 3.27202 45.8134 3.94785 46.1411C4.63225 46.4731 5.36127 46.686 6.24166 46.811C6.77824 46.8873 7.3666 46.9322 8.14918 46.9574C8.57653 46.9715 9.09597 46.9805 9.83321 46.9871C10.5901 46.9935 11.5926 46.9975 13.147 47H86.8516C88.4071 46.9975 89.4093 46.9939 90.1665 46.9871C90.9037 46.9805 91.4232 46.9715 91.8509 46.9574C92.6334 46.9322 93.2218 46.8869 93.758 46.811C94.6384 46.6856 95.3675 46.4727 96.0522 46.1411C96.7281 45.8134 97.3385 45.3772 97.8659 44.8445C98.3927 44.3126 98.824 43.6971 99.1479 43.015C99.4756 42.3247 99.6862 41.5896 99.8104 40.7015C99.8866 40.1569 99.9318 39.5624 99.9572 38.7729C99.9712 38.335 99.9804 37.8099 99.9868 37.0705C99.9936 36.3182 99.9975 35.3178 100 33.7255V13.2759C99.9975 11.6823 99.9932 10.6818 99.9868 9.92948C99.9804 9.19011 99.9712 8.66502 99.9572 8.22745C99.9318 7.43801 99.8866 6.84342 99.8104 6.29889C99.6862 5.41077 99.476 4.67536 99.1479 3.98497C98.824 3.30286 98.3927 2.68738 97.8659 2.15545C97.3385 1.62281 96.7281 1.18667 96.0522 0.858939C95.3678 0.527249 94.6388 0.314044 93.7584 0.189074C93.2218 0.112725 92.6334 0.0677068 91.8509 0.0424967C91.4232 0.0288114 90.9037 0.0194477 90.1668 0.0129651C89.4096 0.00648255 88.4075 0.002521 86.853 0ZM28.3639 15.2969C27.0767 15.2008 25.9092 15.6671 24.9695 16.0423C24.376 16.2792 23.8733 16.48 23.4885 16.48C23.0516 16.48 22.5124 16.2643 21.9073 16.0224C21.1156 15.7058 20.2111 15.3442 19.2769 15.3621C17.1118 15.3942 15.1168 16.6326 14.0008 18.5878C11.7524 22.5246 13.4268 28.3586 15.6171 31.5531C16.6885 33.1138 17.9662 34.8732 19.6441 34.8091C20.3942 34.7793 20.9278 34.55 21.4796 34.3127C22.1163 34.0391 22.7773 33.7549 23.8233 33.7549C24.8213 33.7549 25.453 34.0306 26.0604 34.2958C26.6407 34.5492 27.199 34.7929 28.0337 34.7774C29.7722 34.745 30.874 33.1841 31.9375 31.6143C33.1125 29.8844 33.6265 28.207 33.6967 27.9779L33.7037 27.9552C33.6651 27.9405 30.3146 26.6435 30.281 22.7493C30.2512 19.5537 32.8176 17.9872 33.0275 17.859L33.0368 17.8532C31.5234 15.6062 29.1871 15.3586 28.3639 15.2969ZM28.3919 9.08024C28.5573 10.5864 27.9571 12.1007 27.0654 13.1881C26.1743 14.276 24.714 15.1209 23.2832 15.0089C23.0864 13.5338 23.8108 11.992 24.6352 11.0293C25.5559 9.94278 27.1085 9.13175 28.3919 9.08024Z" fill="black"/>
<path d="M41.3246 13.2239H44.4281C46.064 13.2239 47.1968 14.3316 47.1968 15.9815V15.9933C47.1968 17.6374 46.064 18.7628 44.4281 18.7628H42.6192V21.6371H41.3246V13.2239ZM42.6192 14.3255V17.6665H44.1047C45.2318 17.6665 45.879 17.0544 45.879 15.9991V15.9876C45.879 14.9378 45.2322 14.3259 44.1047 14.3259L42.6192 14.3255Z" fill="black"/>
<path d="M48.3922 15.5055H49.6407V16.5549H49.6695C49.8658 15.8379 50.3747 15.3888 51.0683 15.3888C51.2472 15.3888 51.4032 15.418 51.5018 15.4356V16.6075C51.4036 16.5668 51.1837 16.5377 50.9412 16.5377C50.1375 16.5377 49.6407 17.0685 49.6407 17.9836V21.6394H48.3922V15.5055Z" fill="black"/>
<path d="M52.122 18.5955V18.5897C52.122 16.6716 53.2201 15.3888 54.9252 15.3888C56.6303 15.3888 57.6763 16.6251 57.6763 18.4673V18.893H53.3704C53.3932 20.0534 54.0233 20.7297 55.0173 20.7297C55.7571 20.7297 56.2483 20.3447 56.4047 19.8841L56.4221 19.8376H57.6067L57.5953 19.9017C57.3989 20.8755 56.4626 21.7618 54.9884 21.7618C53.2026 21.7614 52.122 20.5312 52.122 18.5955ZM53.3873 18.0009H56.4393C56.335 16.9399 55.7456 16.4209 54.9305 16.4209C54.1215 16.4205 53.4972 16.9745 53.3873 18.0009Z" fill="black"/>
<path d="M58.9358 15.5055H60.1843V16.4559H60.2132C60.4735 15.8145 61.0914 15.3888 61.8891 15.3888C62.7273 15.3888 63.3396 15.826 63.5827 16.596H63.6116C63.9237 15.8498 64.6401 15.3888 65.5074 15.3888C66.7095 15.3888 67.4956 16.1934 67.4956 17.4236V21.639H66.2414V17.7268C66.2414 16.928 65.819 16.4674 65.0794 16.4674C64.3396 16.4674 63.8252 17.0271 63.8252 17.8029V21.6394H62.5995V17.6335C62.5995 16.9223 62.1547 16.4674 61.4492 16.4674C60.7095 16.4674 60.1837 17.0562 60.1837 17.8492V21.639H58.9352L58.9358 15.5055Z" fill="black"/>
<path d="M68.9402 13.8379C68.9402 13.4357 69.2636 13.109 69.6681 13.109C70.0786 13.109 70.3965 13.4357 70.3965 13.8379C70.3965 14.2345 70.0786 14.5608 69.6681 14.5608C69.2636 14.5608 68.9402 14.2345 68.9402 13.8379ZM69.0441 15.5054H70.2926V21.639H69.0441V15.5054Z" fill="black"/>
<path d="M71.8491 19.4799V15.5036H73.0976V19.235C73.0976 20.1621 73.5254 20.6753 74.3923 20.6753C75.2709 20.6753 75.8373 20.0396 75.8373 19.0838V15.504H77.0915V21.6375H75.8373V20.7163H75.8085C75.4904 21.3344 74.872 21.76 73.9474 21.76C72.6121 21.7597 71.8491 20.891 71.8491 19.4799Z" fill="black"/>
<path d="M78.5581 15.5055H79.8066V16.4559H79.8356C80.0958 15.8145 80.7138 15.3888 81.5114 15.3888C82.3496 15.3888 82.962 15.826 83.205 16.596H83.2339C83.5461 15.8498 84.2625 15.3888 85.1297 15.3888C86.3318 15.3888 87.118 16.1934 87.118 17.4236V21.639H85.8637V17.7268C85.8637 16.928 85.4413 16.4674 84.7017 16.4674C83.962 16.4674 83.4475 17.0271 83.4475 17.8029V21.6394H82.2218V17.6335C82.2218 16.9223 81.777 16.4674 81.0715 16.4674C80.3318 16.4674 79.806 17.0562 79.806 17.8492V21.639H78.5575L78.5581 15.5055Z" fill="black"/>
<path d="M41.3246 25.6625H44.4281C46.064 25.6625 47.1968 26.77 47.1968 28.4202V28.4317C47.1968 30.0758 46.064 31.2012 44.4281 31.2012H42.6192V34.0755H41.3246V25.6625ZM42.6192 26.7647V30.1053H44.1047C45.2318 30.1053 45.879 29.493 45.879 28.4379V28.4264C45.879 27.3764 45.2322 26.7647 44.1047 26.7647H42.6192Z" fill="black"/>
<path d="M47.8527 32.3296V32.318C47.8527 31.2509 48.6734 30.5979 50.1127 30.5104L51.7656 30.4115V29.9507C51.7656 29.2745 51.3322 28.8661 50.5575 28.8661C49.8352 28.8661 49.3896 29.2104 49.2858 29.6998L49.2743 29.7523H48.0951L48.1008 29.6882C48.1875 28.6326 49.0951 27.8223 50.5924 27.8223C52.0775 27.8223 53.0198 28.6154 53.0198 29.8456V34.073H51.7656V33.105H51.7427C51.3899 33.7636 50.6849 34.1835 49.8812 34.1835C48.6677 34.1839 47.8527 33.4316 47.8527 32.3296ZM50.2226 33.1752C51.1008 33.1752 51.7656 32.5744 51.7656 31.7756V31.2977L50.2801 31.391C49.5288 31.4375 49.1125 31.7699 49.1125 32.2889V32.3003C49.1129 32.8369 49.552 33.1752 50.2226 33.1752Z" fill="black"/>
<path d="M54.4646 27.9438H55.713V28.9933H55.7419C55.9383 28.2762 56.4471 27.8272 57.1407 27.8272C57.3195 27.8272 57.4756 27.8563 57.5742 27.8739V29.0458C57.476 29.0052 57.256 28.976 57.0135 28.976C56.2099 28.976 55.713 29.5065 55.713 30.422V34.0774H54.4646V27.9438Z" fill="black"/>
<path d="M59.4082 32.4595V28.9436H58.5356V27.9409H59.4082V26.3429H60.6855V27.9409H61.8241V28.9436H60.6855V32.3836C60.6855 33.0074 60.9629 33.1939 61.4889 33.1939C61.622 33.1939 61.732 33.1824 61.8241 33.1708V34.1448C61.6795 34.1677 61.4428 34.1972 61.1882 34.1972C59.9862 34.197 59.4082 33.6838 59.4082 32.4595Z" fill="black"/>
<path d="M63.1503 27.9438H64.3988V28.8705H64.4277C64.7454 28.2471 65.3698 27.8272 66.2888 27.8272C67.6236 27.8272 68.3927 28.6958 68.3927 30.1068V34.0774H67.1385V30.346C67.1385 29.4244 66.7107 28.9057 65.8436 28.9057C64.965 28.9057 64.3988 29.5471 64.3988 30.5033V34.0778H63.1503V27.9438Z" fill="black"/>
<path d="M69.6165 31.0294V31.0232C69.6165 29.1051 70.7148 27.8223 72.4198 27.8223C74.1249 27.8223 75.171 29.0588 75.171 30.9008V31.3265H70.865C70.8879 32.4869 71.518 33.1636 72.5119 33.1636C73.2516 33.1636 73.7429 32.7786 73.8993 32.318L73.9168 32.2712H75.1014L75.0899 32.3353C74.8936 33.3091 73.9571 34.1955 72.4831 34.1955C70.6976 34.1955 69.6165 32.9651 69.6165 31.0294ZM70.8822 30.4348H73.9343C73.83 29.3738 73.2405 28.8545 72.4256 28.8545C71.6166 28.8545 70.9921 29.4084 70.8822 30.4348Z" fill="black"/>
<path d="M76.4923 27.9438H77.7408V28.9933H77.7696C77.9661 28.2762 78.4748 27.8272 79.1684 27.8272C79.3473 27.8272 79.5034 27.8563 79.6019 27.8739V29.0458C79.5038 29.0052 79.2838 28.976 79.0413 28.976C78.2377 28.976 77.7408 29.5065 77.7408 30.422V34.0774H76.4923V27.9438Z" fill="black"/>
</svg>
